<svg width="139" height="38" viewBox="0 0 139 38" fill="none" xmlns="http://www.w3.org/2000/svg">
<g clip-path="url(#clip0_501_3)" filter="url(#filter0_d_501_3)">
<path d="M24.4582 13.3713C24.0955 13.7526 23.8177 14.2128 23.6446 14.719C23.4716 15.2253 23.4076 15.7652 23.457 16.3003L23.4398 16.2823C23.4907 16.9122 23.4094 17.546 23.2016 18.1397C22.9938 18.7333 22.6645 19.2724 22.2368 19.7194C21.8089 20.1663 21.2929 20.5104 20.7247 20.7274C20.1565 20.9445 19.5498 21.0295 18.947 20.9763L18.9642 20.9943C18.2431 20.9242 17.5188 21.0881 16.8901 21.4638C16.2614 21.8395 15.7589 22.4086 15.4512 23.0936C15.1435 23.7786 15.0454 24.546 15.1704 25.2914C15.2955 26.0367 15.6375 26.7236 16.1498 27.2584C16.6622 27.7932 17.3199 28.1499 18.0334 28.2798C18.7469 28.4097 19.4814 28.3066 20.1367 27.9845C20.7921 27.6623 21.3363 27.1369 21.6953 26.4797C22.0543 25.8225 22.2106 25.0657 22.1429 24.3123L22.1611 24.3303C22.1101 23.7005 22.1914 23.0666 22.3992 22.4729C22.607 21.8793 22.9364 21.3402 23.3641 20.8932C23.7919 20.4463 24.3079 20.1022 24.8761 19.8852C25.4444 19.6681 26.051 19.5831 26.6539 19.6363L26.6357 19.6183C27.2247 19.6736 27.8177 19.5727 28.3595 19.3249C28.9013 19.0771 29.3745 18.6904 29.7351 18.2007C30.0958 17.711 30.3324 17.134 30.4227 16.5234C30.5132 15.9127 30.4546 15.2881 30.2525 14.7073C30.0503 14.1266 29.7111 13.6086 29.2663 13.2013C28.8215 12.794 28.2855 12.5106 27.708 12.3774C27.1305 12.2442 26.53 12.2654 25.9625 12.4391C25.3949 12.6129 24.8785 12.9335 24.4611 13.3713H24.4582Z" fill="#394149"/>
<path d="M17.3973 18.6362L17.3791 18.6182C17.8915 18.6721 18.4089 18.6064 18.8941 18.4258C19.3792 18.2452 19.8198 17.9543 20.1841 17.574C20.5483 17.1937 20.8272 16.7335 21.0004 16.2268C21.1736 15.7201 21.2369 15.1796 21.1857 14.6442L21.2039 14.6622C21.1529 14.0323 21.2343 13.3985 21.442 12.8048C21.6498 12.2112 21.9791 11.6721 22.4069 11.2251C22.8347 10.7782 23.3507 10.4341 23.9189 10.2171C24.4872 10 25.0938 9.91507 25.6967 9.96824L25.6785 9.95024C26.3997 10.021 27.1242 9.8576 27.7532 9.48234C28.3823 9.10708 28.8852 8.53821 29.1934 7.85334C29.5016 7.16848 29.6001 6.40095 29.4755 5.65544C29.3509 4.90993 29.0092 4.22275 28.4969 3.68761C27.9847 3.15248 27.327 2.79544 26.6134 2.66522C25.8999 2.53499 25.1653 2.6379 24.5097 2.95992C23.8542 3.28193 23.3098 3.80738 22.9506 4.46459C22.5913 5.12179 22.4349 5.87876 22.5027 6.63224L22.4855 6.61324C22.5365 7.24313 22.4553 7.87707 22.2476 8.47079C22.0399 9.06451 21.7106 9.6037 21.2828 10.0507C20.855 10.4976 20.3389 10.8417 19.7706 11.0587C19.2023 11.2757 18.5956 11.3605 17.9926 11.3072L18.0099 11.3262C17.4975 11.2723 16.98 11.338 16.4949 11.5186C16.0098 11.6991 15.5692 11.9901 15.2049 12.3704C14.8406 12.7507 14.5618 13.2109 14.3885 13.7176C14.2154 14.2243 14.1521 14.7648 14.2033 15.3002L14.1861 15.2822C14.2368 15.912 14.1554 16.5458 13.9476 17.1394C13.7397 17.7329 13.4104 18.272 12.9827 18.7189C12.5549 19.1658 12.039 19.5098 11.4708 19.727C10.9027 19.9441 10.2961 20.0292 9.69326 19.9762L9.71049 19.9942C8.9893 19.9234 8.26478 20.0868 7.63573 20.4621C7.0067 20.8374 6.50377 21.4062 6.19556 22.0911C5.88734 22.776 5.78883 23.5435 5.91348 24.289C6.03813 25.0345 6.37986 25.7217 6.89206 26.2568C7.40427 26.792 8.062 27.149 8.77555 27.2792C9.48911 27.4094 10.2238 27.3065 10.8793 26.9845C11.5348 26.6625 12.0793 26.1371 12.4384 25.4799C12.7977 24.8226 12.9541 24.0657 12.8863 23.3122L12.9045 23.3302C12.8536 22.7003 12.9349 22.0665 13.1427 21.4728C13.3504 20.8792 13.6798 20.3401 14.1075 19.8931C14.5354 19.4462 15.0513 19.1021 15.6195 18.8851C16.1878 18.668 16.7944 18.583 17.3973 18.6362Z" fill="#394149"/>
<path d="M10.9825 16.6289C11.3453 16.2477 11.623 15.7875 11.7959 15.2812C11.9688 14.7749 12.0326 14.2349 11.9827 13.6999L12.0009 13.7179C11.95 13.0879 12.0313 12.4538 12.2392 11.86C12.4471 11.2662 12.7766 10.727 13.2046 10.28C13.6327 9.83306 14.1488 9.48907 14.7173 9.27212C15.2857 9.05516 15.8927 8.97046 16.4957 9.02394L16.4775 9.00594C17.1984 9.07651 17.9227 8.91302 18.5514 8.53778C19.1802 8.16255 19.6827 7.59382 19.9909 6.90917C20.2989 6.22451 20.3973 5.45726 20.2726 4.71203C20.148 3.9668 19.8063 3.27988 19.2943 2.74494C18.7824 2.21 18.1248 1.85308 17.4115 1.72286C16.6983 1.59263 15.9639 1.69545 15.3086 2.01727C14.6533 2.33909 14.1089 2.86426 13.7498 3.52116C13.3906 4.17806 13.2341 4.93472 13.3017 5.68794L13.2844 5.66994C13.3354 6.29979 13.254 6.93366 13.0462 7.5273C12.8384 8.12094 12.5092 8.66005 12.0814 9.10701C11.6536 9.55397 11.1376 9.898 10.5694 10.115C10.0012 10.3321 9.39447 10.4171 8.79161 10.3639L8.80884 10.3819C8.21979 10.3267 7.62692 10.4278 7.0852 10.6757C6.54348 10.9236 6.07041 11.3104 5.70984 11.8002C5.34928 12.2899 5.11288 12.8669 5.02255 13.4775C4.93222 14.0882 4.99088 14.7128 5.1931 15.2934C5.39532 15.8741 5.73456 16.392 6.17937 16.7992C6.62418 17.2065 7.16018 17.4898 7.7377 17.623C8.31521 17.7561 8.91556 17.7348 9.48312 17.5611C10.0507 17.3873 10.567 17.0667 10.9844 16.6289H10.9825Z" fill="#394149"/>
<path d="M132.704 11.1482C133.869 11.1482 134.814 10.1614 134.814 8.94423C134.814 7.72699 133.869 6.74023 132.704 6.74023C131.54 6.74023 130.595 7.72699 130.595 8.94423C130.595 10.1614 131.54 11.1482 132.704 11.1482Z" fill="#394149"/>
<path d="M37.5314 25H37.2914C36.7581 25 36.3114 24.96 35.9514 24.88C35.6047 24.8 35.2981 24.64 35.0314 24.4C34.7781 24.1467 34.5781 23.8667 34.4314 23.56C34.2981 23.2533 34.1914 22.7933 34.1114 22.18C33.9914 21.26 33.9314 20.0267 33.9314 18.48C33.9314 16.92 33.9381 15.82 33.9514 15.18C33.9781 14.54 34.0314 13.92 34.1114 13.32C34.1914 12.7067 34.2981 12.2533 34.4314 11.96C34.5781 11.6533 34.7781 11.38 35.0314 11.14C35.2981 10.8867 35.6047 10.7267 35.9514 10.66C36.3114 10.58 36.7581 10.54 37.2914 10.54H37.5314V25ZM38.3314 10.54H40.8714C41.8447 10.54 42.5781 10.7067 43.0714 11.04C43.5781 11.3733 43.8314 11.9533 43.8314 12.78V14.58C43.8314 14.86 43.7381 15 43.5514 15H41.0314C40.8447 15 40.7314 14.9733 40.6914 14.92C40.6514 14.8667 40.6314 14.7533 40.6314 14.58V13.02C40.6314 12.8067 40.5981 12.66 40.5314 12.58C40.4781 12.4867 40.3314 12.44 40.0914 12.44H38.3314V10.54ZM41.0314 20.54H43.5514C43.7381 20.54 43.8314 20.68 43.8314 20.96V22.76C43.8314 23.5867 43.5781 24.1667 43.0714 24.5C42.5781 24.8333 41.8447 25 40.8714 25H38.3314V23.1H40.0914C40.3314 23.1 40.4781 23.06 40.5314 22.98C40.5981 22.8867 40.6314 22.7333 40.6314 22.52V20.96C40.6314 20.7867 40.6514 20.6733 40.6914 20.62C40.7314 20.5667 40.8447 20.54 41.0314 20.54ZM50.5789 15H52.5189C53.0256 15 53.4389 15.0267 53.7589 15.08C54.0789 15.12 54.3589 15.22 54.5989 15.38C54.8389 15.54 55.0189 15.72 55.1389 15.92C55.2589 16.1067 55.3522 16.4133 55.4189 16.84C55.5256 17.44 55.5789 18.28 55.5789 19.36C55.5789 20.44 55.5722 21.1733 55.5589 21.56C55.5456 21.9333 55.5189 22.3333 55.4789 22.76C55.4522 23.1867 55.3922 23.5 55.2989 23.7C55.2189 23.9 55.1056 24.1067 54.9589 24.32C54.8256 24.52 54.6456 24.66 54.4189 24.74C53.9256 24.9133 53.2922 25 52.5189 25H52.4789V17.46C52.4789 17.4333 52.4789 17.3533 52.4789 17.22C52.4789 17.0867 52.4722 16.9733 52.4589 16.88C52.3922 16.6267 52.1256 16.5 51.6589 16.5H50.5789V15ZM49.9789 15V22.54C49.9789 22.5667 49.9789 22.6467 49.9789 22.78C49.9789 22.9133 49.9922 23.0267 50.0189 23.12C50.0722 23.3733 50.3322 23.5 50.7989 23.5H51.8789V25H49.9389C49.4322 25 49.0189 24.98 48.6989 24.94C48.3789 24.8867 48.0989 24.78 47.8589 24.62C47.6189 24.46 47.4389 24.2867 47.3189 24.1C47.1989 23.9 47.0989 23.5867 47.0189 23.16C46.9256 22.56 46.8789 21.72 46.8789 20.64C46.8789 19.56 46.8856 18.8333 46.8989 18.46C46.9122 18.0733 46.9322 17.6667 46.9589 17.24C46.9989 16.8133 47.0589 16.5 47.1389 16.3C47.2322 16.1 47.3456 15.9 47.4789 15.7C47.6256 15.4867 47.8122 15.34 48.0389 15.26C48.5322 15.0867 49.1656 15 49.9389 15H49.9789ZM58.7611 15.02H59.9811C60.5677 15.02 61.0077 15.1667 61.3011 15.46C61.6077 15.74 61.7611 16.1067 61.7611 16.56V25H59.4811C59.2677 25 59.0944 24.9267 58.9611 24.78C58.8277 24.6333 58.7611 24.44 58.7611 24.2V15.02ZM58.9011 10.76C59.0477 10.6133 59.4744 10.54 60.1811 10.54C60.8877 10.54 61.3144 10.6133 61.4611 10.76C61.6077 10.8933 61.6811 11.2933 61.6811 11.96C61.6811 12.6267 61.6011 13.0333 61.4411 13.18C61.2944 13.3267 60.8744 13.4 60.1811 13.4C59.4877 13.4 59.0611 13.3267 58.9011 13.18C58.7544 13.0333 58.6811 12.6267 58.6811 11.96C58.6811 11.2933 58.7544 10.8933 58.9011 10.76ZM68.554 15H71.354C72.8074 15 73.534 15.7133 73.534 17.14V25H71.254C71.0407 25 70.8674 24.9267 70.734 24.78C70.6007 24.6333 70.534 24.44 70.534 24.2V17.1C70.534 16.8867 70.4807 16.7333 70.374 16.64C70.2807 16.5467 70.0607 16.5 69.714 16.5H68.554V15ZM65.054 15H66.274C66.8607 15 67.3007 15.1467 67.594 15.44C67.9007 15.72 68.054 16.0867 68.054 16.54V25H65.774C65.5607 25 65.3874 24.9267 65.254 24.78C65.1207 24.6333 65.054 24.44 65.054 24.2V15ZM76.8158 15.02H78.0358C78.6224 15.02 79.0624 15.1667 79.3558 15.46C79.6624 15.74 79.8158 16.1067 79.8158 16.56V25H77.5358C77.3224 25 77.1491 24.9267 77.0158 24.78C76.8824 24.6333 76.8158 24.44 76.8158 24.2V15.02ZM76.9558 10.76C77.1024 10.6133 77.5291 10.54 78.2358 10.54C78.9424 10.54 79.3691 10.6133 79.5158 10.76C79.6624 10.8933 79.7358 11.2933 79.7358 11.96C79.7358 12.6267 79.6558 13.0333 79.4958 13.18C79.3491 13.3267 78.9291 13.4 78.2358 13.4C77.5424 13.4 77.1158 13.3267 76.9558 13.18C76.8091 13.0333 76.7358 12.6267 76.7358 11.96C76.7358 11.2933 76.8091 10.8933 76.9558 10.76ZM86.6887 15H88.6287C89.9487 15 90.7621 15.2267 91.0687 15.68C91.2154 15.8933 91.3287 16.1 91.4087 16.3C91.5021 16.5 91.5621 16.8133 91.5887 17.24C91.6554 18.0133 91.6887 18.8733 91.6887 19.82C91.6887 20.7667 91.6821 21.4533 91.6687 21.88C91.6554 22.2933 91.6087 22.72 91.5287 23.16C91.4621 23.5867 91.3687 23.9 91.2487 24.1C91.1287 24.2867 90.9487 24.46 90.7087 24.62C90.4687 24.78 90.1887 24.8867 89.8687 24.94C89.5487 24.98 89.1354 25 88.6287 25H86.6887V23.5H87.7687C88.1154 23.5 88.3354 23.4533 88.4287 23.36C88.5354 23.2667 88.5887 23.12 88.5887 22.92V17.1C88.5887 16.8867 88.5354 16.7333 88.4287 16.64C88.3354 16.5467 88.1154 16.5 87.7687 16.5H86.6887V15ZM86.0887 29.46H84.8687C84.2821 29.46 83.8354 29.3133 83.5287 29.02C83.2354 28.74 83.0887 28.3733 83.0887 27.92V16.54C83.0887 16.0867 83.2354 15.72 83.5287 15.44C83.8354 15.1467 84.2821 15 84.8687 15H86.0887V29.46ZM97.6104 15V18.66C97.6104 18.8867 97.6438 19.0467 97.7104 19.14C97.7771 19.22 97.9504 19.26 98.2304 19.26H99.3504V20.76H96.7904C95.3371 20.76 94.6104 20.0467 94.6104 18.62V17.22C94.6104 16.34 94.8304 15.7533 95.2704 15.46C95.7238 15.1533 96.5038 15 97.6104 15ZM97.6504 21.84V22.9C97.6504 23.1267 97.6838 23.2867 97.7504 23.38C97.8171 23.46 97.9904 23.5 98.2704 23.5H99.3504V25H96.8304C95.3771 25 94.6504 24.2867 94.6504 22.86V22.26C94.6504 22.06 94.6704 21.9467 94.7104 21.92C94.7638 21.8933 94.7971 21.88 94.8104 21.88C94.8238 21.8667 94.8571 21.86 94.9104 21.86C94.9771 21.8467 95.0171 21.84 95.0304 21.84C95.9104 21.84 96.7838 21.84 97.6504 21.84ZM99.9504 19.26H100.77C102.224 19.26 102.95 19.9733 102.95 21.4V22.78C102.95 23.66 102.724 24.2533 102.27 24.56C101.83 24.8533 101.057 25 99.9504 25V19.26ZM98.2104 15H100.73C102.184 15 102.91 15.7133 102.91 17.14V18.18C102.017 18.18 101.337 18.18 100.87 18.18C100.404 18.18 100.164 18.18 100.15 18.18C100.137 18.1667 100.11 18.16 100.07 18.16C100.044 18.1467 100.024 18.1333 100.01 18.12C99.9971 18.1067 99.9838 18.0933 99.9704 18.08C99.9571 18.0533 99.9504 18.0267 99.9504 18C99.9238 17.8933 99.9104 17.8133 99.9104 17.76V17.1C99.9104 16.8733 99.8771 16.72 99.8104 16.64C99.7438 16.5467 99.5704 16.5 99.2904 16.5H98.2104V15ZM105.967 15H108.247C108.461 15 108.634 15.0733 108.767 15.22C108.901 15.3667 108.967 15.56 108.967 15.8V22.9C108.967 23.1133 109.014 23.2667 109.107 23.36C109.214 23.4533 109.441 23.5 109.787 23.5H110.947V25H108.147C106.694 25 105.967 24.2867 105.967 22.86V15ZM115.347 24.86C115.347 24.9533 115.314 25 115.247 25H113.227C112.641 25 112.194 24.86 111.887 24.58C111.594 24.2867 111.447 23.9133 111.447 23.46V15H113.727C113.941 15 114.114 15.0733 114.247 15.22C114.381 15.3667 114.447 15.56 114.447 15.8V22.74C114.447 23.1533 114.534 23.3867 114.707 23.44C114.801 23.48 114.927 23.5 115.087 23.5H115.187C115.294 23.5 115.347 23.5467 115.347 23.64V24.86ZM126.884 15H129.604C131.058 15 131.784 15.7133 131.784 17.14V25H129.504C129.291 25 129.118 24.9267 128.984 24.78C128.851 24.6333 128.784 24.44 128.784 24.2V17.1C128.784 16.8867 128.731 16.7333 128.624 16.64C128.531 16.5467 128.311 16.5 127.964 16.5H126.884V15ZM117.964 15H119.184C119.771 15 120.211 15.1467 120.504 15.44C120.811 15.72 120.964 16.0867 120.964 16.54V25H118.684C118.471 25 118.298 24.9267 118.164 24.78C118.031 24.6333 117.964 24.44 117.964 24.2V15ZM121.464 15H124.184C125.638 15 126.364 15.7133 126.364 17.14V25H124.084C123.871 25 123.698 24.9267 123.564 24.78C123.431 24.6333 123.364 24.44 123.364 24.2V17.1C123.364 16.8867 123.311 16.7333 123.204 16.64C123.111 16.5467 122.891 16.5 122.544 16.5H121.464V15Z" fill="#394149"/>
</g>
<defs>
<filter id="filter0_d_501_3" x="-1" y="0" width="142" height="38" filterUnits="userSpaceOnUse" color-interpolation-filters="sRGB">
<feFlood flood-opacity="0" result="BackgroundImageFix"/>
<feColorMatrix in="SourceAlpha" type="matrix" values="0 0 0 0 0 0 0 0 0 0 0 0 0 0 0 0 0 0 127 0" result="hardAlpha"/>
<feOffset dy="4"/>
<feGaussianBlur stdDeviation="2"/>
<feComposite in2="hardAlpha" operator="out"/>
<feColorMatrix type="matrix" values="0 0 0 0 0 0 0 0 0 0 0 0 0 0 0 0 0 0 0.25 0"/>
<feBlend mode="normal" in2="BackgroundImageFix" result="effect1_dropShadow_501_3"/>
<feBlend mode="normal" in="SourceGraphic" in2="effect1_dropShadow_501_3" result="shape"/>
</filter>
<clipPath id="clip0_501_3">
<rect width="134" height="30" fill="white" transform="translate(3)"/>
</clipPath>
</defs>
</svg>
